<svg xmlns="http://www.w3.org/2000/svg" viewBox="0 0 1100 320" role="img" aria-labelledby="title desc">
<title id="title">Bicycle wheel hub and spokes illustration</title>
<desc id="desc">A simple bicycle wheel showing the central hub with spokes branching outward, representing one central resource hub connecting to many paths.</desc>
<defs>
  <linearGradient id="sea" x1="0" x2="1"><stop offset="0" stop-color="#f8fbff"/><stop offset="1" stop-color="#fffefa"/></linearGradient>
  <filter id="soft" x="-20%" y="-20%" width="140%" height="140%"><feDropShadow dx="0" dy="10" stdDeviation="12" flood-color="#0e2b52" flood-opacity=".10"/></filter>
</defs>
<rect width="1100" height="320" rx="28" fill="url(#sea)"/>
<path d="M0 240 C150 210 230 265 370 228 C490 196 560 216 680 235 C800 254 930 205 1100 232" fill="none" stroke="#b9d2e3" stroke-width="4" opacity=".55"/>
<path d="M10 270 C210 238 330 278 510 252 C690 228 820 246 1088 260" fill="none" stroke="#e5cf9b" stroke-width="4" stroke-linecap="round" stroke-dasharray="11 14" opacity=".55"/>
<g transform="translate(218 28)" filter="url(#soft)">
  <circle cx="132" cy="142" r="114" fill="#fff" stroke="#0e2b52" stroke-width="5"/>
  <circle cx="132" cy="142" r="93" fill="none" stroke="#dbe7ee" stroke-width="3"/>
  <circle cx="132" cy="142" r="20" fill="#fff8df" stroke="#b78d36" stroke-width="5"/>
  <circle cx="132" cy="142" r="7" fill="#0e2b52"/>
  <g stroke="#285f9e" stroke-width="2.2" opacity=".74">
    <line x1="132" y1="142" x2="132" y2="28"/><line x1="132" y1="142" x2="132" y2="256"/>
    <line x1="132" y1="142" x2="18" y2="142"/><line x1="132" y1="142" x2="246" y2="142"/>
    <line x1="132" y1="142" x2="51" y2="61"/><line x1="132" y1="142" x2="213" y2="223"/>
    <line x1="132" y1="142" x2="213" y2="61"/><line x1="132" y1="142" x2="51" y2="223"/>
    <line x1="132" y1="142" x2="81" y2="40"/><line x1="132" y1="142" x2="183" y2="244"/>
    <line x1="132" y1="142" x2="234" y2="91"/><line x1="132" y1="142" x2="30" y2="193"/>
  </g>
  <path d="M132 142 C230 116 321 86 421 68" fill="none" stroke="#0e2b52" stroke-width="8" stroke-linecap="round"/>
  <path d="M132 142 C256 151 346 170 451 206" fill="none" stroke="#0e2b52" stroke-width="8" stroke-linecap="round"/>
  <circle cx="468" cy="209" r="16" fill="#0e2b52"/>
  <path d="M452 209 L505 229" stroke="#0e2b52" stroke-width="8" stroke-linecap="round"/>
  <path d="M470 205 C488 188 505 174 522 162" fill="none" stroke="#b78d36" stroke-width="7" stroke-linecap="round"/>
  <path d="M520 162 C538 147 543 123 538 100" fill="none" stroke="#a2743f" stroke-width="11" stroke-linecap="round"/>
  <path d="M542 100 C553 83 570 77 585 85" fill="none" stroke="#24364f" stroke-width="12" stroke-linecap="round"/>
</g>
<g fill="#0e2b52" opacity=".88">
  <circle cx="685" cy="82" r="7"/><circle cx="789" cy="56" r="5"/><circle cx="913" cy="98" r="6"/><circle cx="972" cy="206" r="5"/>
</g>
<g stroke="#90b9d7" stroke-width="3" fill="none" opacity=".7" stroke-linecap="round">
  <path d="M698 126 C733 96 778 99 807 133"/>
  <path d="M812 170 C850 140 893 149 918 178"/>
  <path d="M650 215 C702 194 741 201 782 229"/>
</g>
<g fill="#fff" stroke="#dbe7ee" stroke-width="2">
  <rect x="650" y="34" width="144" height="50" rx="18"/><rect x="842" y="77" width="158" height="50" rx="18"/><rect x="748" y="210" width="190" height="50" rx="18"/>
</g>
<g fill="#0e2b52" opacity=".8">
  <path d="M680 56 h32 v7 h-32z M696 45 h30 v7 h-30z"/>
  <path d="M875 100 h46 v7 h-46z M892 91 h30 v7 h-30z"/>
  <path d="M783 233 h55 v7 h-55z M799 224 h35 v7 h-35z"/>
</g>
</svg>